<?xml version="1.0" encoding="utf-8"?>
<!-- Generator: Adobe Illustrator 24.1.2, SVG Export Plug-In . SVG Version: 6.00 Build 0)  -->
<svg version="1.1" id="Слой_1" xmlns="http://www.w3.org/2000/svg" xmlns:xlink="http://www.w3.org/1999/xlink" x="0px" y="0px"
	 viewBox="0 0 957.4 957.1" style="enable-background:new 0 0 957.4 957.1;" xml:space="preserve">
<style type="text/css">
	.st0{fill:#FF5E29;}
</style>
<g transform="translate(0.000000,1280.000000) scale(0.100000,-0.100000)">
	<path class="st0" d="M4509.8,12796.9c-953-60-1851-388-2595-948c-269-203-593-507-791-746c-641-770-1007-1643-1111-2650
		c-17-164-17-716,0-880c118-1151,590-2150,1391-2950c384-383,783-668,1272-910c638-315,1326-480,2009-484c200-1,245,2,299,17
		c279,79,491,291,567,568c25,89,25,308,0,399c-23,87-86,214-136,275c-190,233-242,360-243,590c-1,149,17,223,85,363
		c102,209,287,359,523,424c77,21,102,22,755,28c724,7,746,9,986,65c659,155,1233,555,1609,1120c388,583,519,1238,405,2020
		c-182,1242-967,2345-2159,3029c-615,354-1312,574-2061,651C5167.8,12793.9,4646.8,12805.9,4509.8,12796.9z M3659.8,11728.9
		c385-106,639-477,595-869c-23-199-107-367-254-504c-393-368-1035-251-1272,232c-58,118-75,187-81,321c-6,133,12,242,60,354
		c104,241,318,418,572,474C3369.8,11756.9,3574.8,11751.9,3659.8,11728.9z M6282.8,11736.9c316-64,563-314,628-634
		c20-99,15-272-10-365c-43-158-160-334-289-430c-369-279-888-202-1152,170c-224,316-194,742,73,1027c78,84,217,172,327,208
		C5985.8,11754.9,6150.8,11763.9,6282.8,11736.9z M1968.8,9612.9c322-47,581-282,667-605c29-111,29-279,0-390
		c-144-547-769-786-1236-474c-147,98-255,242-317,420c-31,90-33,100-33,249s2,159,33,250c46,134,101,221,201,321
		C1468.8,9568.9,1711.8,9649.9,1968.8,9612.9z M7928.8,9593.9c131-34,247-102,352-206c106-104,158-188,206-325c31-91,33-101,33-250
		s-2-159-33-249c-62-178-170-322-317-420c-467-312-1092-73-1236,474c-29,111-29,279,0,390c84,319,341,554,659,605
		C7676.8,9625.9,7838.8,9616.9,7928.8,9593.9z"/>
</g>
</svg>
