<?xml version="1.0" encoding="utf-8"?>
<!-- Generator: Adobe Illustrator 24.1.2, SVG Export Plug-In . SVG Version: 6.00 Build 0)  -->
<svg version="1.1" id="Слой_1" xmlns="http://www.w3.org/2000/svg" xmlns:xlink="http://www.w3.org/1999/xlink" x="0px" y="0px"
	 viewBox="0 0 200.3 240" style="enable-background:new 0 0 200.3 240;" xml:space="preserve">
<style type="text/css">
	.st0{display:none;fill:#FFFFFF;}
	.st1{fill:#FF5E29;}
</style>
<g>
	<path class="st0" d="M84.2,240c-34.6,0-69.3,0-104,0c0-80,0-160,0-240c34.7,0,69.3,0,104,0c-1.8,0.3-3.6,0.6-5.4,0.9
		C64.9,3.3,50.8,5,37.1,8.2c-11.7,2.7-22.9,7.1-31.8,15.9C-1.6,30.9-2,39.3,5.4,45.4c6,5,13.1,9.3,20.3,12.3
		c20.1,8.2,41.4,10.8,63,11.8c27.3,1.2,54.2-1.2,80.4-9.6c9.4-3,18.4-6.8,25.7-13.9c7.3-7.2,7.4-15.1-0.1-22.2
		c-2.8-2.6-5.9-4.9-9.2-6.8c-12.3-7-25.8-10.6-39.6-12.9C136,2.4,126.1,1.3,116.2,0c34.7,0,69.4,0,104,0c0,80,0,160,0,240
		c-34.7,0-69.4,0-104,0c1.5-0.3,2.9-0.6,4.4-0.8c10.2-1.4,20.5-2.4,30.6-4.3c13.8-2.7,27.4-6.4,38.8-14.9c3.9-2.9,8.6-7.3,9.3-11.6
		c1.5-8.8,0.4-17.9,0.4-26.9c-31.1,17.7-65,21.5-99.5,21.5c-34.6,0-68.7-3.8-100-21.8c0,5.9,0.5,11.4-0.1,16.8
		C-1.4,210.4,5,217.7,15,223.1c12.4,6.8,25.9,10.5,39.7,12.9C64.4,237.6,74.3,238.7,84.2,240z M200.2,124.5
		c-31.4,18-65.3,21.8-99.8,21.8c-34.6,0-68.8-3.7-100.2-21.7c0,6.3,0.5,12.3-0.1,18.2c-1,10,3.7,16.5,11.6,21.4
		c2.8,1.7,5.7,3.4,8.7,4.8c19.6,8.7,40.4,12,61.6,13.4c29.6,1.9,58.9-0.1,87.4-9.3c9.2-3,18.4-6.5,25.1-13.8c2.7-3,5-7.3,5.5-11.2
		C200.8,140.5,200.2,132.8,200.2,124.5z M0.2,67.8c0,7,0.3,13.5-0.1,20c-0.5,7.9,2.6,13.9,9,17.7c7.4,4.4,15.1,8.7,23.2,11.2
		c39,12,78.7,12.4,118.5,4.6c14.1-2.7,28-6.5,39.7-15.3c3.8-2.9,8.2-7.2,8.9-11.4c1.4-8.6,0.4-17.6,0.4-26.6
		C139.6,97.2,61.8,97.2,0.2,67.8z"/>
	<path class="st1" d="M116.2,0c9.9,1.3,19.8,2.4,29.6,4.1c13.8,2.4,27.3,5.9,39.6,12.9c3.3,1.9,6.5,4.2,9.2,6.8
		c7.5,7.1,7.4,15,0.1,22.2c-7.2,7.1-16.3,10.9-25.7,13.9c-26,8.4-53,10.7-80.3,9.6c-21.5-0.9-42.9-3.6-63-11.8
		c-7.3-2.9-14.3-7.3-20.3-12.3c-7.4-6.2-7-14.5-0.1-21.3c8.8-8.7,20.1-13.2,31.8-15.9C50.8,5,64.9,3.3,78.8,0.9
		c1.8-0.3,3.6-0.6,5.4-0.9C94.9,0,105.5,0,116.2,0z"/>
	<path class="st1" d="M84.2,240c-9.9-1.3-19.8-2.4-29.6-4.1c-13.8-2.4-27.2-6.1-39.7-12.9c-10-5.4-16.4-12.7-14.9-25.1
		c0.7-5.4,0.1-10.9,0.1-16.8c31.3,18,65.4,21.8,100,21.8c34.5,0,68.4-3.8,99.5-21.5c0,9,1,18.2-0.4,26.9c-0.7,4.3-5.4,8.7-9.3,11.6
		c-11.4,8.5-25.1,12.2-38.8,14.9c-10.1,2-20.4,2.9-30.6,4.3c-1.5,0.2-2.9,0.6-4.4,0.8C105.5,240,94.9,240,84.2,240z"/>
	<path class="st1" d="M200.2,124.5c0,8.3,0.6,16.1-0.2,23.6c-0.4,3.9-2.7,8.3-5.5,11.2c-6.7,7.3-15.9,10.8-25.1,13.8
		c-28.5,9.2-57.7,11.3-87.4,9.3c-21.2-1.4-42-4.7-61.6-13.5c-3-1.4-5.9-3-8.7-4.8c-8-4.9-12.6-11.5-11.6-21.4
		c0.6-5.9,0.1-11.9,0.1-18.2c31.5,18,65.6,21.8,100.2,21.7C134.9,146.2,168.8,142.5,200.2,124.5z"/>
	<path class="st1" d="M0.2,67.8C61.8,97.2,139.6,97.2,199.8,68c0,9,1,18-0.4,26.6c-0.7,4.2-5.1,8.5-8.9,11.4
		c-11.7,8.8-25.6,12.6-39.7,15.3c-39.8,7.7-79.5,7.3-118.5-4.6c-8.1-2.5-15.8-6.9-23.2-11.2c-6.4-3.8-9.5-9.9-9-17.7
		C0.5,81.4,0.2,74.9,0.2,67.8z"/>
</g>
</svg>
