<svg id="Слой_1" data-name="Слой 1" xmlns="http://www.w3.org/2000/svg" viewBox="0 0 181.41 181.47"><defs><style>.cls-1{fill:#ff5e29;}</style></defs><path class="cls-1" d="M34.49,19.19c1,.41,1.81.71,2.59,1.08,4.85,2.29,9.64,4.72,14.58,6.82A6.58,6.58,0,0,0,56.1,27c4.55-1.72,8.89-4,13.48-5.55a5.79,5.79,0,0,0,4.1-4.19c1.55-4.74,3.42-9.37,5-14.11C79.37,1,80.35,0,82.85.05,88,.26,93.1.28,98.21,0c2.83-.14,3.93,1.07,4.7,3.5,1.56,4.87,3.2,9.73,5.13,14.46a7.11,7.11,0,0,0,3.44,3.22c4.18,1.93,8.65,3.29,12.74,5.38a6.64,6.64,0,0,0,6.93,0c4.41-2.34,8.94-4.48,13.55-6.37a4.71,4.71,0,0,1,4.08.7c4.15,3.78,8.16,7.75,11.95,11.89a4.75,4.75,0,0,1,.54,4.15c-2.08,4.93-4.67,9.66-6.75,14.6a7.17,7.17,0,0,0,.07,4.77c1.73,4.8,3.69,9.53,5.78,14.19a5.89,5.89,0,0,0,2.86,2.88c5.12,2,10.32,3.76,15.54,5.48a3.3,3.3,0,0,1,2.63,3.79c-.16,5.5.08,11-.18,16.49a4.69,4.69,0,0,1-2.42,3.34c-4.84,2-9.8,3.72-14.78,5.38a5.48,5.48,0,0,0-3.94,3.87c-1.63,4.7-3.93,9.16-5.69,13.81a6.43,6.43,0,0,0,0,4.41c2.17,5,4.78,9.89,6.91,15a4.62,4.62,0,0,1-.7,4.07c-3.69,4.06-7.75,7.79-11.53,11.78-1.5,1.59-2.75,1.55-4.57.62-4.79-2.42-9.62-4.79-14.56-6.86a7.12,7.12,0,0,0-4.75.13c-4.66,1.75-9.27,3.69-13.77,5.82a7.17,7.17,0,0,0-3.36,3.3c-2,4.84-3.7,9.81-5.37,14.78-.68,2-1.57,3-3.94,2.94-5.36-.19-10.75-.18-16.11,0-2.36.09-3.29-.91-4-2.94-1.68-5.1-3.39-10.19-5.37-15.17a6.42,6.42,0,0,0-3.2-3c-4.42-2-9.08-3.51-13.43-5.67a5.86,5.86,0,0,0-5.91,0c-4.57,2.29-9.25,4.38-13.8,6.7-1.86.94-3.14.78-4.6-.75-3.71-3.88-7.47-7.72-11.38-11.4-1.8-1.7-1.8-3.13-.74-5.2,2.4-4.67,4.68-9.4,6.72-14.22a6.64,6.64,0,0,0-.05-4.44Q24.2,118,21,110.89a5.89,5.89,0,0,0-3-2.78c-5.12-2-10.39-3.57-15.48-5.62A4.7,4.7,0,0,1,.14,99.11c-.24-5.49,0-11-.14-16.49a3.34,3.34,0,0,1,2.64-3.78c5.08-1.73,10.17-3.42,15.13-5.45A7.17,7.17,0,0,0,21.07,70c2.13-4.5,4.1-9.1,5.83-13.77a7.16,7.16,0,0,0,0-4.79c-2.13-5.05-4.73-9.91-6.88-15a4.33,4.33,0,0,1,.61-3.78c3.9-4.22,8.05-8.21,12.13-12.25A13.92,13.92,0,0,1,34.49,19.19Zm92.26,71.45c.09-19.47-15.92-35.83-35.19-36-20.75-.14-36.83,15.63-36.92,36.19-.09,19.47,16,35.84,35.2,35.94C110.62,126.91,126.66,111.19,126.75,90.64Z"/></svg>