<?xml version="1.0" encoding="utf-8"?>
<!-- Generator: Adobe Illustrator 24.1.2, SVG Export Plug-In . SVG Version: 6.00 Build 0)  -->
<svg version="1.1" id="Слой_1" xmlns="http://www.w3.org/2000/svg" xmlns:xlink="http://www.w3.org/1999/xlink" x="0px" y="0px"
	 viewBox="0 0 799.6 531.8" style="enable-background:new 0 0 799.6 531.8;" xml:space="preserve">
<style type="text/css">
	.st0{display:none;fill:#FFFFFF;}
	.st1{fill:#FF5E29;}
</style>
<g>
	<path class="st0" d="M-30.1,572c0-204,0-408,0-612c286.7,0,573.3,0,860,0c0,204,0,408,0,612C543.3,572,256.6,572-30.1,572z
		 M473.7,531.5c1.7,0.1,2.9,0.2,4,0.2c42.2,0,84.3,0.1,126.5-0.1c10.1-0.1,20.4-0.7,30.4-2.3c104.5-16.2,176.1-110.7,163.7-215.8
		c-10.3-87.1-79-156.9-166.2-168.7c-4.6-0.6-7.1-2.4-9.4-6.6c-59.9-110-190.9-164-309.9-126.4c-88.9,28.1-147.8,87.7-177,176.4
		c-1.1,3.3-2.8,4.8-6,5.6C47.9,214.5-6.7,291.1,0.7,374.8C8.3,461.6,78.9,529,165.7,531.1c52.1,1.2,104.3,0.4,156.5,0.4
		c1.1,0,2.3-0.2,3.5-0.4c0-74.1,0-147.9,0-222.2c-2.2,0-4,0-5.8,0c-17.7,0-35.3,0-53,0c-5.2,0-9.7-1-12.1-6.2
		c-2.4-5.1-0.3-9.2,3-13.2c44.2-53.2,88.3-106.4,132.5-159.6c6-7.3,12.8-7.3,18.8-0.1c44.2,53.2,88.3,106.4,132.5,159.6
		c3.3,3.9,5.6,8,3.2,13.2c-2.5,5.4-7.2,6.3-12.5,6.3c-17.7-0.1-35.3,0-53,0c-1.8,0-3.6,0-5.7,0C473.7,383.2,473.7,457.1,473.7,531.5
		z"/>
	<path class="st1" d="M473.7,531.5c0-74.4,0-148.3,0-222.7c2.1,0,3.9,0,5.7,0c17.7,0,35.3,0,53,0c5.3,0,10-0.8,12.5-6.3
		c2.4-5.2,0.1-9.2-3.2-13.2c-44.2-53.2-88.4-106.4-132.5-159.6c-6-7.2-12.8-7.1-18.8,0.1c-44.2,53.2-88.3,106.4-132.5,159.6
		c-3.3,4-5.4,8.1-3,13.2c2.4,5.2,6.9,6.2,12.1,6.2c17.7-0.1,35.3,0,53,0c1.8,0,3.6,0,5.8,0c0,74.3,0,148.2,0,222.2
		c-1.3,0.1-2.4,0.4-3.5,0.4c-52.2-0.1-104.3,0.8-156.5-0.4C78.9,529,8.3,461.6,0.7,374.8c-7.4-83.7,47.2-160.4,129-180.9
		c3.2-0.8,4.9-2.2,6-5.6c29.2-88.7,88.1-148.3,177-176.4c119-37.6,250.1,16.4,309.9,126.4c2.3,4.1,4.8,6,9.4,6.6
		c87.2,11.8,155.9,81.6,166.2,168.7c12.4,105.1-59.2,199.6-163.7,215.8c-10,1.6-20.2,2.2-30.4,2.3c-42.2,0.2-84.3,0.1-126.5,0.1
		C476.6,531.7,475.4,531.6,473.7,531.5z"/>
</g>
</svg>
