<svg id="Слой_1" data-name="Слой 1" xmlns="http://www.w3.org/2000/svg" viewBox="0 0 24 23.6"><defs><style>.cls-1{fill:#292929;fill-rule:evenodd;}</style></defs><path class="cls-1" d="M12,0a12.11,12.11,0,0,0-3.8,23.58c.6.12.82-.26.82-.58s0-1.25,0-2.25c-3.34.72-4-1.44-4-1.44a3.11,3.11,0,0,0-1.33-1.76c-1.09-.74.08-.74.08-.74a2.53,2.53,0,0,1,1.85,1.24,2.55,2.55,0,0,0,3.5,1,2.56,2.56,0,0,1,.75-1.62c-2.66-.28-5.47-1.32-5.47-6A4.74,4.74,0,0,1,5.59,8.21,4.36,4.36,0,0,1,5.71,5s1-.32,3.3,1.24a11.29,11.29,0,0,1,3-.4,11.54,11.54,0,0,1,3,.4C17.3,4.69,18.31,5,18.31,5a4.36,4.36,0,0,1,.12,3.2,4.65,4.65,0,0,1,1.24,3.25c0,4.65-2.81,5.67-5.49,6A2.89,2.89,0,0,1,15,19.67c0,1.62,0,2.93,0,3.33s.22.7.82.58A12.11,12.11,0,0,0,12,0Z"/></svg>