<?xml version="1.0" encoding="utf-8"?>
<!-- Generator: Adobe Illustrator 24.1.2, SVG Export Plug-In . SVG Version: 6.00 Build 0)  -->
<svg version="1.1" id="Слой_1" xmlns="http://www.w3.org/2000/svg" xmlns:xlink="http://www.w3.org/1999/xlink" x="0px" y="0px"
	 viewBox="0 0 212.4 167.3" style="enable-background:new 0 0 212.4 167.3;" xml:space="preserve">
<style type="text/css">
	.st0{fill:#FF5E29;}
</style>
<path class="st0" d="M13.4,0c61.7,0,123.3,0,185,0c7.2,1.6,11.9,5.9,14,13c0,47.3,0,94.7,0,142c-3.2,9.1-9.7,12.3-19.2,12.3
	c-58-0.2-116-0.3-173.9,0.1C6.7,167.4-0.1,160.7,0,147.8c0.5-42.6,0.2-85.3,0.2-127.9C0.2,7.6,2.3,4.4,13.4,0z M14.5,48.2
	c0,1.9,0,3.4,0,4.9c0,30.8,0,61.6,0,92.4c0,6.5,1,7.4,7.6,7.4c56.3,0,112.6,0,168.9,0c6.6,0,7.4-0.9,7.4-7.5c0-30.8,0-61.6,0-92.4
	c0-1.6,0-3.2,0-4.8C136.8,48.2,76,48.2,14.5,48.2z M130.7,17.4c-4.1,0.1-7.4,3.7-7.3,7.9c0.1,4.2,3.6,7.6,7.7,7.5
	c4.1-0.1,7.4-3.7,7.3-7.9C138.3,20.7,134.9,17.3,130.7,17.4z M164.3,25.3c0.1-4-3.4-7.8-7.4-7.9c-4.1-0.1-7.7,3.3-7.8,7.5
	c-0.1,4.2,3.3,7.8,7.3,7.9C160.4,32.9,164.2,29.4,164.3,25.3z M190.1,25.2c0-4-3.6-7.7-7.7-7.8c-3.9-0.1-7.8,3.7-7.8,7.6
	c0,4,3.6,7.7,7.6,7.8C186.3,32.9,190.1,29.1,190.1,25.2z"/>
</svg>
