<svg id="Слой_1" data-name="Слой 1" xmlns="http://www.w3.org/2000/svg" viewBox="0 0 24 20.02"><defs><style>.cls-1{fill:#98a2b2;fill-rule:evenodd;}</style></defs><path id="telegram-1" class="cls-1" d="M18.37,19.81a1.07,1.07,0,0,0,1.1.1,1.12,1.12,0,0,0,.7-.8C21.07,15,23.16,4.73,24,1a.67.67,0,0,0-.3-.8.78.78,0,0,0-.8-.2C18.67,1.64,5.79,6.43.5,8.43a.79.79,0,0,0-.5.79.87.87,0,0,0,.6.8c2.4.7,5.49,1.7,5.49,1.7s1.5,4.39,2.2,6.59a.9.9,0,0,0,.6.6.76.76,0,0,0,.79-.2c1.2-1.1,3.1-2.9,3.1-2.9S16.37,18.31,18.37,19.81Zm-11-8.69,1.7,5.49.4-3.49S16,7.23,19.67,3.93a.3.3,0,0,0,0-.4.6.6,0,0,0-.4-.1C15,6.23,7.39,11.12,7.39,11.12Z"/></svg>